<?xml version="1.0" encoding="utf-8"?>
<!-- Generator: Adobe Illustrator 16.0.3, SVG Export Plug-In . SVG Version: 6.00 Build 0)  -->
<!DOCTYPE svg PUBLIC "-//W3C//DTD SVG 1.1//EN" "http://www.w3.org/Graphics/SVG/1.1/DTD/svg11.dtd">
<svg version="1.1" id="Calque_1" xmlns="http://www.w3.org/2000/svg" xmlns:xlink="http://www.w3.org/1999/xlink" x="0px" y="0px"
	 width="450.277px" height="100.328px" viewBox="0 0 450.277 100.328" enable-background="new 0 0 450.277 100.328"
	 xml:space="preserve">
<g>
	
		<linearGradient id="SVGID_1_" gradientUnits="userSpaceOnUse" x1="-141.5332" y1="-475.8818" x2="-141.5332" y2="-446.7324" gradientTransform="matrix(0.9068 0.4216 -0.4216 0.9068 -8.4453 489.7742)">
		<stop  offset="0" style="stop-color:#95C11F"/>
		<stop  offset="1" style="stop-color:#3AAA35"/>
	</linearGradient>
	<path fill="url(#SVGID_1_)" d="M47.649,22.856c0,0,1.416-2.285,3.466-5.937c2.049-3.65,4.927-5.785,8.606-8.829
		c3.68-3.044,3.948-3.296,4.993-4.245c1.044-0.948,1.28-1.292,0.733-2.225c-0.548-0.934,0.324-1.51,0.813-1.585
		c0.487-0.075,2.012-0.271,0.652,2.492c-1.361,2.764-3.802,4.12-6.883,6.688c-3.08,2.568-4.997,4.094-6.757,6.745
		c-1.762,2.654-4.092,6.853-4.256,7.532C48.851,24.169,47.649,22.856,47.649,22.856z"/>
	
		<linearGradient id="SVGID_2_" gradientUnits="userSpaceOnUse" x1="-145.98" y1="-427.5415" x2="-145.98" y2="-448.6543" gradientTransform="matrix(0.9068 0.4216 -0.4216 0.9068 -8.4453 489.7742)">
		<stop  offset="0" style="stop-color:#BF152E"/>
		<stop  offset="1" style="stop-color:#E50040"/>
	</linearGradient>
	<path fill="url(#SVGID_2_)" d="M36.392,39.121c-2.169-1.009-5.499-5.193-4.063-11.119c1.437-5.925,3.528-7.59,6.705-8.749
		c3.178-1.161,6.431,0.351,8.096,2.443c1.665,2.092,3.252,1.512,3.252,1.512s4.841,0.932,6.003,4.109
		c1.16,3.177,0.152,5.345-1.36,8.599c-2.079,4.471-8.874,7.742-12.127,6.23S38.56,40.128,36.392,39.121z"/>
</g>
<g>
	<rect x="101.615" y="21.926" fill="none" width="348.662" height="78.402"/>
	<path fill="#403130" d="M130.516,77.823l-16.301-38.202v47.303c0,6.5,1.2,7.801,6.601,8v1.8h-15.401v-1.8h6.1V41.021
		c0-7.6-0.9-8.7-7.2-9v-2h11.901l15.801,37.603l14.001-37.603h11.201v1.8h-6v55.103v1.6c0,5.4,1,6.4,6.2,6.4h0.3v1.8h-18.001v-1.8h6
		V38.021L130.516,77.823z"/>
	<path fill="#403130" d="M186.084,67.923v-1.2c0-4.9-0.8-7.8-2.5-9.9c-1.7-1.9-4.2-3-7-3c-6.701,0-11.401,5.101-12.401,13.501h-1.5
		V48.722h2v9.201c3-4.3,7.5-6.601,12.801-6.601c5.5,0,9.701,2.6,11.801,7c0.9,1.9,1.3,3.6,1.4,6.4c0,0.9,0,1.4,0,2.8
		c0.1,1.7,0.1,2.6,0.1,2.8v16.701c0,6.601,0.9,7.9,5.5,7.9h0.5v1.8h-10.601v-3.1c-3.1,2.6-6.9,4.1-10.901,4.1
		c-8.4,0-15.101-6.4-15.101-14.201c0-8.401,8.601-16.201,17.901-16.201c2.8,0,5.9,0.7,8,1.8
		C186.084,68.523,186.084,68.123,186.084,67.923z M176.384,69.923c-6.8,0-12,5.101-12,11.701c0,7.201,5.8,13.201,12.701,13.201
		c3.1,0,6.1-1.4,9.101-4.101V74.223C183.784,71.623,180.084,69.923,176.384,69.923z"/>
	<path fill="#403130" d="M199.792,63.223l-1.4-1.2l11.201-13.201l1.4,1.2l-2.5,3v4.8c2.7-3.9,6.8-6.101,11.201-6.101
		c3.2,0,6.3,1.3,8.4,3.5c2.5,2.6,3.1,4.8,3.1,11.4v20.401c0,6.601,0.8,7.9,5.5,7.9h0.5v1.8h-15.701v-1.8h5.1V70.423
		c0-1.4,0-2.4,0-2.6l-0.1-3.4c0-4.101-0.7-5.9-2.6-7.601c-1.5-1.4-3.6-2.2-5.9-2.2c-4.9,0-8.8,3.6-9.5,8.701v23.701
		c0,6.601,0.8,7.9,5.5,7.9h0.6v1.8h-15.601v-1.8h4.9V58.422L199.792,63.223z"/>
	<path fill="#403130" d="M248.871,87.024c0,6.601,0.801,7.9,5.4,7.9h0.5v1.8h-15.6v-1.8h5.1V31.521l-4.1,4.8l-1.4-1.2l11.101-13.201
		l1.399,1.2l-2.4,3v30.402c2.501-3.3,6.101-5,10.301-5c4.7,0,8.501,2.1,10.701,5.9c1.3,2.4,1.5,3.8,1.5,10.201v19.401
		c0,6.601,0.9,7.9,5.5,7.9h0.5v1.8h-15.601v-1.8h5V71.123v-4c0-5.601-0.399-7.5-2.2-9.601c-1.7-2-4.2-3.101-7.101-3.101
		c-3.8,0-7,2.2-8.601,5.9V87.024z"/>
	<path fill="#403130" d="M304.151,67.923v-1.2c0-4.9-0.8-7.8-2.5-9.9c-1.7-1.9-4.2-3-7-3c-6.701,0-11.401,5.101-12.401,13.501h-1.5
		V48.722h2v9.201c3.001-4.3,7.501-6.601,12.801-6.601c5.501,0,9.701,2.6,11.801,7c0.9,1.9,1.301,3.6,1.4,6.4c0,0.9,0,1.4,0,2.8
		c0.1,1.7,0.1,2.6,0.1,2.8v16.701c0,6.601,0.9,7.9,5.501,7.9h0.5v1.8h-10.601v-3.1c-3.101,2.6-6.9,4.1-10.901,4.1
		c-8.4,0-15.101-6.4-15.101-14.201c0-8.401,8.601-16.201,17.901-16.201c2.8,0,5.9,0.7,8,1.8
		C304.151,68.523,304.151,68.123,304.151,67.923z M294.451,69.923c-6.801,0-12.001,5.101-12.001,11.701
		c0,7.201,5.801,13.201,12.701,13.201c3.1,0,6.101-1.4,9.101-4.101V74.223C301.851,71.623,298.151,69.923,294.451,69.923z"/>
	<path fill="#403130" d="M323.24,80.224c0,5.5,0.6,8.9,2.1,11.401c1.4,2.5,4.4,4.1,7.4,4.1c3.7,0,7.001-2.4,8.9-6.5l1.601,0.9
		c-1.101,4.601-6.001,8.101-11.301,8.101c-4.9,0-9.501-2.8-11.601-7.2c-1.4-2.8-1.801-5.8-1.801-12.601V54.522h-4v-1.8h4V35.121
		l4.701-5.101v22.701h10.101v1.8H323.24V80.224z"/>
	<path fill="#403130" d="M349.659,80.224c0,5.5,0.6,8.9,2.1,11.401c1.4,2.5,4.4,4.1,7.4,4.1c3.7,0,7.001-2.4,8.9-6.5l1.601,0.9
		c-1.101,4.601-6.001,8.101-11.301,8.101c-4.9,0-9.501-2.8-11.601-7.2c-1.4-2.8-1.801-5.8-1.801-12.601V54.522h-4v-1.8h4V35.121
		l4.701-5.101v22.701h10.101v1.8h-10.101V80.224z"/>
	<path fill="#403130" d="M395.189,67.923v-1.2c0-4.9-0.8-7.8-2.5-9.9c-1.7-1.9-4.2-3-7.001-3c-6.7,0-11.4,5.101-12.4,13.501h-1.5
		V48.722h2v9.201c3-4.3,7.5-6.601,12.801-6.601c5.5,0,9.7,2.6,11.801,7c0.899,1.9,1.3,3.6,1.399,6.4c0,0.9,0,1.4,0,2.8
		c0.101,1.7,0.101,2.6,0.101,2.8v16.701c0,6.601,0.9,7.9,5.5,7.9h0.5v1.8h-10.601v-3.1c-3.1,2.6-6.9,4.1-10.9,4.1
		c-8.4,0-15.101-6.4-15.101-14.201c0-8.401,8.601-16.201,17.9-16.201c2.801,0,5.9,0.7,8.001,1.8
		C395.189,68.523,395.189,68.123,395.189,67.923z M385.488,69.923c-6.8,0-12,5.101-12,11.701c0,7.201,5.8,13.201,12.7,13.201
		c3.101,0,6.101-1.4,9.101-4.101V74.223C392.888,71.623,389.188,69.923,385.488,69.923z"/>
	<path fill="#403130" d="M408.896,63.223l-1.399-1.2l11.2-13.201l1.4,1.2l-2.5,3v4.8c2.7-3.9,6.8-6.101,11.2-6.101
		c3.2,0,6.301,1.3,8.4,3.5c2.5,2.6,3.101,4.8,3.101,11.4v20.401c0,6.601,0.8,7.9,5.5,7.9h0.5v1.8h-15.7v-1.8h5.1V70.423
		c0-1.4,0-2.4,0-2.6l-0.1-3.4c0-4.101-0.7-5.9-2.601-7.601c-1.5-1.4-3.6-2.2-5.9-2.2c-4.9,0-8.8,3.6-9.5,8.701v23.701
		c0,6.601,0.8,7.9,5.5,7.9h0.6v1.8h-15.601v-1.8h4.9V58.422L408.896,63.223z"/>
</g>
<g opacity="0.9">
	<linearGradient id="SVGID_3_" gradientUnits="userSpaceOnUse" x1="44.1567" y1="25.7144" x2="44.1567" y2="96.8232">
		<stop  offset="0" style="stop-color:#FFEB79"/>
		<stop  offset="0.04" style="stop-color:#FEDC6C"/>
		<stop  offset="0.0975" style="stop-color:#FCCA5F"/>
		<stop  offset="0.1563" style="stop-color:#FABC55"/>
		<stop  offset="0.2166" style="stop-color:#F9B34F"/>
		<stop  offset="0.2809" style="stop-color:#F9B04D"/>
		<stop  offset="0.6685" style="stop-color:#E55B51"/>
		<stop  offset="0.8876" style="stop-color:#A34346"/>
		<stop  offset="1" style="stop-color:#362E2C"/>
	</linearGradient>
	<path fill="url(#SVGID_3_)" d="M60.092,96.823c6.236,0,12.682-4.922,14.323-10.938L87.928,36.37
		c1.642-6.016-2.116-10.81-8.35-10.651c0,0-19.837,0.502-35.422,0.502S8.735,25.718,8.735,25.718
		c-6.234-0.158-9.992,4.635-8.35,10.651l13.512,49.515c1.642,6.016,8.087,10.938,14.323,10.938H60.092z"/>
</g>
<g opacity="0.7">
	
		<linearGradient id="SVGID_4_" gradientUnits="userSpaceOnUse" x1="-4182.3325" y1="-2496.7334" x2="-4182.3325" y2="-2525.1113" gradientTransform="matrix(-0.7278 0.6858 -0.6858 -0.7278 -4739.6851 1077.8793)">
		<stop  offset="0" style="stop-color:#E2F3FE"/>
		<stop  offset="1" style="stop-color:#EFF8FE;stop-opacity:0"/>
	</linearGradient>
	<path fill="url(#SVGID_4_)" d="M7.951,38.688c-1.069-1.135-1.016-2.938,0.119-4.007l16.813-15.843
		c1.135-1.069,2.938-1.016,4.007,0.119l15.574,16.526c1.069,1.135,1.016,2.938-0.119,4.007L27.532,55.333
		c-1.135,1.069-2.938,1.016-4.007-0.119L7.951,38.688z"/>
</g>
<g opacity="0.7">
	
		<linearGradient id="SVGID_5_" gradientUnits="userSpaceOnUse" x1="-6028.1187" y1="-329.8066" x2="-6028.1187" y2="-354.2935" gradientTransform="matrix(-0.955 -0.2967 0.2967 -0.955 -5586.2695 -2080.9756)">
		<stop  offset="0" style="stop-color:#E2F3FE"/>
		<stop  offset="1" style="stop-color:#EFF8FE;stop-opacity:0"/>
	</linearGradient>
	<path fill="url(#SVGID_5_)" d="M60.036,21.556c0.462-1.489,2.059-2.329,3.548-1.866l18.295,5.685
		c1.489,0.462,2.329,2.059,1.866,3.548l-5.583,17.971c-0.462,1.489-2.059,2.329-3.548,1.866l-18.293-5.684
		c-1.489-0.462-2.329-2.059-1.866-3.548L60.036,21.556z"/>
</g>
<g>
</g>
<g>
</g>
<g>
</g>
<g>
</g>
<g>
</g>
<g>
</g>
</svg>
