<?xml version="1.0" encoding="utf-8"?>
<!-- Generator: Adobe Illustrator 16.0.3, SVG Export Plug-In . SVG Version: 6.00 Build 0)  -->
<!DOCTYPE svg PUBLIC "-//W3C//DTD SVG 1.1//EN" "http://www.w3.org/Graphics/SVG/1.1/DTD/svg11.dtd">
<svg version="1.1" id="Calque_1" xmlns="http://www.w3.org/2000/svg" xmlns:xlink="http://www.w3.org/1999/xlink" x="0px" y="0px"
	 width="93.513px" height="102.409px" viewBox="0 0 93.513 102.409" enable-background="new 0 0 93.513 102.409"
	 xml:space="preserve">
<g>
	
		<linearGradient id="SVGID_1_" gradientUnits="userSpaceOnUse" x1="-138.9336" y1="-473.8008" x2="-138.9336" y2="-444.6514" gradientTransform="matrix(0.9068 0.4216 -0.4216 0.9068 -7.3256 488.8721)">
		<stop  offset="0" style="stop-color:#95C11F"/>
		<stop  offset="1" style="stop-color:#3AAA35"/>
	</linearGradient>
	<path fill="url(#SVGID_1_)" d="M50.249,24.938c0,0,1.416-2.285,3.466-5.937c2.049-3.65,4.927-5.785,8.606-8.829
		c3.68-3.044,3.948-3.296,4.993-4.245c1.044-0.948,1.28-1.292,0.733-2.225c-0.548-0.934,0.324-1.51,0.813-1.585
		c0.487-0.075,2.012-0.271,0.652,2.492c-1.361,2.764-3.802,4.12-6.883,6.688c-3.08,2.568-4.997,4.094-6.757,6.745
		c-1.762,2.654-4.092,6.853-4.256,7.532C51.45,26.25,50.249,24.938,50.249,24.938z"/>
	
		<linearGradient id="SVGID_2_" gradientUnits="userSpaceOnUse" x1="-143.3804" y1="-425.4604" x2="-143.3804" y2="-446.5732" gradientTransform="matrix(0.9068 0.4216 -0.4216 0.9068 -7.3256 488.8721)">
		<stop  offset="0" style="stop-color:#BF152E"/>
		<stop  offset="1" style="stop-color:#E50040"/>
	</linearGradient>
	<path fill="url(#SVGID_2_)" d="M38.992,41.202c-2.169-1.009-5.499-5.193-4.063-11.119c1.437-5.925,3.528-7.59,6.705-8.749
		c3.178-1.161,6.431,0.351,8.096,2.443c1.665,2.092,3.252,1.512,3.252,1.512s4.841,0.932,6.003,4.109
		c1.16,3.177,0.152,5.345-1.36,8.599c-2.079,4.471-8.874,7.742-12.127,6.23S41.16,42.209,38.992,41.202z"/>
</g>
<g opacity="0.9">
	<linearGradient id="SVGID_3_" gradientUnits="userSpaceOnUse" x1="46.7563" y1="27.7954" x2="46.7563" y2="98.9043">
		<stop  offset="0" style="stop-color:#FFEB79"/>
		<stop  offset="0.04" style="stop-color:#FEDC6C"/>
		<stop  offset="0.0975" style="stop-color:#FCCA5F"/>
		<stop  offset="0.1563" style="stop-color:#FABC55"/>
		<stop  offset="0.2166" style="stop-color:#F9B34F"/>
		<stop  offset="0.2809" style="stop-color:#F9B04D"/>
		<stop  offset="0.6685" style="stop-color:#E55B51"/>
		<stop  offset="0.8876" style="stop-color:#A34346"/>
		<stop  offset="1" style="stop-color:#362E2C"/>
	</linearGradient>
	<path fill="url(#SVGID_3_)" d="M62.692,98.904c6.236,0,12.682-4.922,14.323-10.938l13.513-49.515
		c1.642-6.016-2.116-10.81-8.35-10.651c0,0-19.837,0.502-35.422,0.502s-35.421-0.502-35.421-0.502
		c-6.234-0.158-9.992,4.635-8.35,10.651l13.512,49.515c1.642,6.016,8.087,10.938,14.323,10.938H62.692z"/>
</g>
<g opacity="0.7">
	
		<linearGradient id="SVGID_4_" gradientUnits="userSpaceOnUse" x1="-4179.7329" y1="-2494.6523" x2="-4179.7329" y2="-2523.0303" gradientTransform="matrix(-0.7278 0.6858 -0.6858 -0.7278 -4733.7661 1079.6921)">
		<stop  offset="0" style="stop-color:#E2F3FE"/>
		<stop  offset="1" style="stop-color:#EFF8FE;stop-opacity:0"/>
	</linearGradient>
	<path fill="url(#SVGID_4_)" d="M10.55,40.769c-1.069-1.135-1.016-2.938,0.119-4.007l16.813-15.843
		c1.135-1.069,2.938-1.016,4.007,0.119l15.574,16.526c1.069,1.135,1.016,2.938-0.119,4.007L30.132,57.414
		c-1.135,1.069-2.938,1.016-4.007-0.119L10.55,40.769z"/>
</g>
<g opacity="0.7">
	
		<linearGradient id="SVGID_5_" gradientUnits="userSpaceOnUse" x1="-6025.519" y1="-327.7256" x2="-6025.519" y2="-352.2124" gradientTransform="matrix(-0.955 -0.2967 0.2967 -0.955 -5581.8047 -2076.1357)">
		<stop  offset="0" style="stop-color:#E2F3FE"/>
		<stop  offset="1" style="stop-color:#EFF8FE;stop-opacity:0"/>
	</linearGradient>
	<path fill="url(#SVGID_5_)" d="M62.635,23.637c0.462-1.489,2.059-2.329,3.548-1.866l18.295,5.685
		c1.489,0.462,2.329,2.059,1.866,3.548l-5.583,17.971c-0.462,1.489-2.059,2.329-3.548,1.866L58.92,45.156
		c-1.489-0.462-2.329-2.059-1.866-3.548L62.635,23.637z"/>
</g>
<g>
</g>
<g>
</g>
<g>
</g>
<g>
</g>
<g>
</g>
<g>
</g>
</svg>
